<mxfile host="app.diagrams.net" modified="2022-05-07T04:40:37.493Z" agent="5.0 (Macintosh; Intel Mac OS X 10_15_7) AppleWebKit/537.36 (KHTML, like Gecko) Chrome/100.0.4896.127 Safari/537.36" etag="6TPEVX95IGdzH0bnfRU1" version="17.4.3" type="github">
  <diagram id="1DGZ0pAReRTyI6p_18Ht" name="第 1 页">
    <mxGraphModel dx="1886" dy="850" grid="1" gridSize="10" guides="1" tooltips="1" connect="1" arrows="1" fold="1" page="1" pageScale="1" pageWidth="827" pageHeight="1169" math="0" shadow="0">
      <root>
        <mxCell id="0" />
        <mxCell id="1" parent="0" />
        <mxCell id="fVH-w_c11gkOIXWyaUR0-1" value="hrsscore" style="shape=umlLifeline;perimeter=lifelinePerimeter;whiteSpace=wrap;html=1;container=1;collapsible=0;recursiveResize=0;outlineConnect=0;" vertex="1" parent="1">
          <mxGeometry x="100" y="160" width="110" height="600" as="geometry" />
        </mxCell>
        <mxCell id="fVH-w_c11gkOIXWyaUR0-2" value="社保中台" style="text;html=1;align=center;verticalAlign=middle;resizable=0;points=[];autosize=1;strokeColor=none;fillColor=none;" vertex="1" parent="1">
          <mxGeometry x="120" y="130" width="60" height="20" as="geometry" />
        </mxCell>
        <mxCell id="fVH-w_c11gkOIXWyaUR0-3" value="hrspscore" style="shape=umlLifeline;perimeter=lifelinePerimeter;whiteSpace=wrap;html=1;container=1;collapsible=0;recursiveResize=0;outlineConnect=0;" vertex="1" parent="1">
          <mxGeometry x="344" y="150" width="100" height="610" as="geometry" />
        </mxCell>
        <mxCell id="fVH-w_c11gkOIXWyaUR0-4" value="" style="html=1;points=[];perimeter=orthogonalPerimeter;" vertex="1" parent="fVH-w_c11gkOIXWyaUR0-3">
          <mxGeometry x="45" y="70" width="10" height="80" as="geometry" />
        </mxCell>
        <mxCell id="fVH-w_c11gkOIXWyaUR0-45" value="" style="html=1;points=[];perimeter=orthogonalPerimeter;" vertex="1" parent="fVH-w_c11gkOIXWyaUR0-3">
          <mxGeometry x="45" y="180" width="10" height="50" as="geometry" />
        </mxCell>
        <mxCell id="fVH-w_c11gkOIXWyaUR0-46" value="" style="edgeStyle=orthogonalEdgeStyle;html=1;align=left;spacingLeft=2;endArrow=block;rounded=0;entryX=1;entryY=0;" edge="1" target="fVH-w_c11gkOIXWyaUR0-45" parent="fVH-w_c11gkOIXWyaUR0-3">
          <mxGeometry relative="1" as="geometry">
            <mxPoint x="56" y="110" as="sourcePoint" />
            <Array as="points">
              <mxPoint x="136" y="110" />
              <mxPoint x="136" y="180" />
            </Array>
          </mxGeometry>
        </mxCell>
        <mxCell id="fVH-w_c11gkOIXWyaUR0-65" value="" style="html=1;points=[];perimeter=orthogonalPerimeter;fontColor=#000000;" vertex="1" parent="fVH-w_c11gkOIXWyaUR0-3">
          <mxGeometry x="45" y="450" width="10" height="40" as="geometry" />
        </mxCell>
        <mxCell id="fVH-w_c11gkOIXWyaUR0-66" value="处理MQ消息并更新任务状态" style="edgeStyle=orthogonalEdgeStyle;html=1;align=left;spacingLeft=2;endArrow=block;rounded=0;entryX=1;entryY=0;labelBackgroundColor=#FFFFFF;fontColor=#000000;" edge="1" target="fVH-w_c11gkOIXWyaUR0-65" parent="fVH-w_c11gkOIXWyaUR0-3">
          <mxGeometry x="1" y="10" relative="1" as="geometry">
            <mxPoint x="46" y="410" as="sourcePoint" />
            <Array as="points">
              <mxPoint x="76" y="410" />
            </Array>
            <mxPoint as="offset" />
          </mxGeometry>
        </mxCell>
        <mxCell id="fVH-w_c11gkOIXWyaUR0-67" value="" style="html=1;points=[];perimeter=orthogonalPerimeter;fontColor=#000000;" vertex="1" parent="fVH-w_c11gkOIXWyaUR0-3">
          <mxGeometry x="45" y="350" width="10" height="80" as="geometry" />
        </mxCell>
        <mxCell id="fVH-w_c11gkOIXWyaUR0-10" value="社保底层" style="text;html=1;align=center;verticalAlign=middle;resizable=0;points=[];autosize=1;strokeColor=none;fillColor=none;" vertex="1" parent="1">
          <mxGeometry x="354" y="130" width="60" height="20" as="geometry" />
        </mxCell>
        <mxCell id="fVH-w_c11gkOIXWyaUR0-11" value="hspsgateway" style="shape=umlLifeline;perimeter=lifelinePerimeter;whiteSpace=wrap;html=1;container=1;collapsible=0;recursiveResize=0;outlineConnect=0;" vertex="1" parent="1">
          <mxGeometry x="645" y="150" width="120" height="570" as="geometry" />
        </mxCell>
        <mxCell id="fVH-w_c11gkOIXWyaUR0-55" value="" style="html=1;points=[];perimeter=orthogonalPerimeter;" vertex="1" parent="fVH-w_c11gkOIXWyaUR0-11">
          <mxGeometry x="55" y="230" width="10" height="80" as="geometry" />
        </mxCell>
        <mxCell id="fVH-w_c11gkOIXWyaUR0-13" value="daqcore" style="shape=umlLifeline;perimeter=lifelinePerimeter;whiteSpace=wrap;html=1;container=1;collapsible=0;recursiveResize=0;outlineConnect=0;" vertex="1" parent="1">
          <mxGeometry x="905" y="160" width="100" height="580" as="geometry" />
        </mxCell>
        <mxCell id="fVH-w_c11gkOIXWyaUR0-58" value="" style="html=1;points=[];perimeter=orthogonalPerimeter;fontColor=#000000;" vertex="1" parent="fVH-w_c11gkOIXWyaUR0-13">
          <mxGeometry x="45" y="270" width="10" height="80" as="geometry" />
        </mxCell>
        <mxCell id="fVH-w_c11gkOIXWyaUR0-15" value="客户端" style="text;html=1;align=center;verticalAlign=middle;resizable=0;points=[];autosize=1;strokeColor=none;fillColor=none;" vertex="1" parent="1">
          <mxGeometry x="968" y="130" width="50" height="20" as="geometry" />
        </mxCell>
        <mxCell id="fVH-w_c11gkOIXWyaUR0-19" value="发起缴费工资调整任务" style="html=1;verticalAlign=bottom;endArrow=block;entryX=0;entryY=0;rounded=0;" edge="1" parent="1" source="fVH-w_c11gkOIXWyaUR0-1" target="fVH-w_c11gkOIXWyaUR0-4">
          <mxGeometry relative="1" as="geometry">
            <mxPoint x="319" y="220" as="sourcePoint" />
          </mxGeometry>
        </mxCell>
        <mxCell id="fVH-w_c11gkOIXWyaUR0-20" value="return&amp;nbsp; &amp;nbsp; taskNumber" style="html=1;verticalAlign=bottom;endArrow=open;dashed=1;endSize=8;exitX=0;exitY=0.95;rounded=0;" edge="1" parent="1" source="fVH-w_c11gkOIXWyaUR0-4" target="fVH-w_c11gkOIXWyaUR0-1">
          <mxGeometry relative="1" as="geometry">
            <mxPoint x="319" y="296" as="targetPoint" />
          </mxGeometry>
        </mxCell>
        <mxCell id="fVH-w_c11gkOIXWyaUR0-47" value="MQ处理异步提交数据（生产者）" style="text;html=1;align=center;verticalAlign=middle;resizable=0;points=[];autosize=1;strokeColor=none;fillColor=none;" vertex="1" parent="1">
          <mxGeometry x="400" y="240" width="190" height="20" as="geometry" />
        </mxCell>
        <mxCell id="fVH-w_c11gkOIXWyaUR0-48" value="MQ处理消息（消费者）" style="text;html=1;align=center;verticalAlign=middle;resizable=0;points=[];autosize=1;strokeColor=none;fillColor=none;" vertex="1" parent="1">
          <mxGeometry x="400" y="330" width="140" height="20" as="geometry" />
        </mxCell>
        <mxCell id="fVH-w_c11gkOIXWyaUR0-49" value="topic:&lt;br&gt;hspcore-topic-submit-task" style="text;html=1;align=center;verticalAlign=middle;resizable=0;points=[];autosize=1;strokeColor=none;fillColor=none;" vertex="1" parent="1">
          <mxGeometry x="480" y="275" width="150" height="30" as="geometry" />
        </mxCell>
        <mxCell id="fVH-w_c11gkOIXWyaUR0-51" value="网关服务" style="text;html=1;align=center;verticalAlign=middle;resizable=0;points=[];autosize=1;strokeColor=none;fillColor=none;" vertex="1" parent="1">
          <mxGeometry x="665" y="120" width="60" height="20" as="geometry" />
        </mxCell>
        <mxCell id="fVH-w_c11gkOIXWyaUR0-56" value="&lt;span style=&quot;background-color: rgb(255 , 255 , 255)&quot;&gt;处理消息真正提交（通过gateway&lt;span style=&quot;font-family: &amp;#34;jetbrains mono&amp;#34; , monospace ; font-size: 9.8pt&quot;&gt;提交&lt;/span&gt;&lt;span style=&quot;font-family: &amp;#34;jetbrains mono&amp;#34; , monospace ; font-size: 9.8pt&quot;&gt;数据&lt;/span&gt;&lt;span style=&quot;font-family: &amp;#34;jetbrains mono&amp;#34; , monospace ; font-size: 9.8pt&quot;&gt;到客户端&lt;/span&gt;）&lt;/span&gt;" style="html=1;verticalAlign=bottom;endArrow=block;entryX=0;entryY=0;rounded=0;" edge="1" target="fVH-w_c11gkOIXWyaUR0-55" parent="1" source="fVH-w_c11gkOIXWyaUR0-3">
          <mxGeometry relative="1" as="geometry">
            <mxPoint x="585" y="380" as="sourcePoint" />
          </mxGeometry>
        </mxCell>
        <mxCell id="fVH-w_c11gkOIXWyaUR0-59" value="&lt;pre style=&quot;font-family: &amp;#34;jetbrains mono&amp;#34; , monospace ; font-size: 9.8pt&quot;&gt;&lt;br&gt;&lt;/pre&gt;" style="html=1;verticalAlign=bottom;endArrow=block;entryX=0;entryY=0;rounded=0;labelBackgroundColor=#FFFFFF;fontColor=#000000;" edge="1" target="fVH-w_c11gkOIXWyaUR0-58" parent="1">
          <mxGeometry x="0.0224" y="20" relative="1" as="geometry">
            <mxPoint x="710" y="430" as="sourcePoint" />
            <mxPoint x="1" as="offset" />
          </mxGeometry>
        </mxCell>
        <mxCell id="fVH-w_c11gkOIXWyaUR0-61" value="&lt;pre style=&quot;font-family: &amp;#34;jetbrains mono&amp;#34; , monospace ; font-size: 11px&quot;&gt;&lt;font style=&quot;background-color: rgb(255 , 255 , 255) ; font-size: 11px&quot;&gt;组装客户端需要的数据&lt;br style=&quot;font-size: 11px&quot;&gt;调用发送的接口获取调用结果&lt;/font&gt;&lt;/pre&gt;" style="text;html=1;align=center;verticalAlign=middle;resizable=0;points=[];autosize=1;strokeColor=none;fillColor=none;fontColor=#000000;" vertex="1" parent="1">
          <mxGeometry x="750" y="380" width="170" height="60" as="geometry" />
        </mxCell>
        <mxCell id="fVH-w_c11gkOIXWyaUR0-60" value="返回 MQ调用客户端消息结果" style="html=1;verticalAlign=bottom;endArrow=open;dashed=1;endSize=8;exitX=0;exitY=0.95;rounded=0;labelBackgroundColor=#FFFFFF;fontColor=#000000;" edge="1" source="fVH-w_c11gkOIXWyaUR0-58" parent="1">
          <mxGeometry relative="1" as="geometry">
            <mxPoint x="400" y="506" as="targetPoint" />
          </mxGeometry>
        </mxCell>
      </root>
    </mxGraphModel>
  </diagram>
</mxfile>
